<svg width="192" height="192" viewBox="0 0 192 192" fill="none" xmlns="http://www.w3.org/2000/svg">
<rect width="192" height="192" rx="2" fill="#384959"/>
<path d="M126.144 142H94.912C84.2453 142 76.3093 139.867 71.104 135.6C65.984 131.333 63.424 124.763 63.424 115.888V76.08C63.424 67.2053 65.984 60.6347 71.104 56.368C76.3093 52.016 84.2453 49.84 94.912 49.84H126.144C127.765 49.84 128.917 50.224 129.6 50.992C130.368 51.6747 130.752 52.8267 130.752 54.448V69.936C130.752 71.5573 130.368 72.752 129.6 73.52C128.917 74.2027 127.765 74.544 126.144 74.544H100.416C97.7707 74.544 95.808 75.0987 94.528 76.208C93.248 77.232 92.608 78.8107 92.608 80.944V111.408C92.608 113.541 93.248 115.12 94.528 116.144C95.808 117.083 97.7707 117.552 100.416 117.552H126.144C127.765 117.552 128.917 117.936 129.6 118.704C130.368 119.387 130.752 120.539 130.752 122.16V137.392C130.752 139.013 130.368 140.208 129.6 140.976C128.917 141.659 127.765 142 126.144 142Z" fill="white"/>
</svg>
